<?xml version="1.0" encoding="iso-8859-1"?>
<!DOCTYPE svg PUBLIC "-//W3C//DTD SVG 1.1//EN"
  "http://www.w3.org/Graphics/DTD/svg11.dtd">
<svg version="1.1" id="Capa_1" xmlns="http://www.w3.org/2000/svg"
  xmlns:xlink="http://www.w3.org/1999/xlink" viewBox="0 0 512 512"
  xml:space="preserve">

  <g>
    <!-- Fondo del campo -->
    <rect x="32" y="96" style="fill:#6EBF5D;" width="448" height="320" />
    
    <!-- Borde del campo -->
    <path style="fill:#003B54;" d="M496,448H16c-8.836,0-16-7.164-16-16V80c0-8.836,7.164-16,16-16h480
      c8.836,0,16,7.164,16,16v352C512,440.836,504.836,448,496,448z M32,416h448V96H32V416z" />

    <!-- Contenido original blanco -->
    <path style="fill:#FFFFFF;" d="M336,256.016c0.016-38.703-27.492-70.985-64-78.406V96h-32v81.61
      c-36.515,7.422-64.015,39.703-64,78.406c-0.007,38.703,27.477,70.969,64,78.382V416h32v-81.602
      C308.508,326.985,336.016,294.719,336,256.016z M208.008,256.016c0.008-20.89,13.367-38.61,31.992-45.203v90.406
      C221.375,294.626,208.016,276.906,208.008,256.016z M272,301.211v-90.406c18.633,6.586,32,24.321,32,45.195
      C303.993,276.875,290.633,294.61,272,301.211z" />

    <!-- ❌ X roja grande de esquina a esquina del campo -->
    <!-- Diagonal ↘ de esquina superior izquierda a inferior derecha -->
    <line x1="32" y1="96" x2="480" y2="416" stroke="#FF0000" stroke-width="24" stroke-linecap="round"/>
    <!-- Diagonal ↙ de esquina superior derecha a inferior izquierda -->
    <line x1="480" y1="96" x2="32" y2="416" stroke="#FF0000" stroke-width="24" stroke-linecap="round"/>
  </g>
</svg>
