<?xml version="1.0" encoding="UTF-8"?>
<svg width="512" height="512" viewBox="0 0 512 512"
     xmlns="http://www.w3.org/2000/svg" xmlns:xlink="http://www.w3.org/1999/xlink">

  <!-- Fondo / Tarjeta -->
  <g>
    <rect x="32" y="96" fill="#6EBF5D" width="448" height="320"/>
    <path fill="#003B54" d="M496,448H16c-8.836,0-16-7.164-16-16V80c0-8.836,7.164-16,16-16h480c8.836,0,16,7.164,16,16v352
        C512,440.836,504.836,448,496,448z M32,416h448V96H32V416z"/>
    <path fill="#FFFFFF" d="M336,256.016c0.016-38.703-27.492-70.985-64-78.406V96h-32v81.61
        c-36.515,7.422-64.015,39.703-64,78.406c-0.007,38.703,27.477,70.969,64,78.382V416h32v-81.602
        C308.508,326.985,336.016,294.719,336,256.016z M208.008,256.016c0.008-20.89,13.367-38.61,31.992-45.203v90.406
        C221.375,294.626,208.016,276.906,208.008,256.016z M272,301.211v-90.406c18.633,6.586,32,24.321,32,45.195
        C303.993,276.875,290.633,294.61,272,301.211z"/>
    <path fill="#FFFFFF" d="M480.016,320c-8,0-7.234,0-16.032,0h-16c-8.797,0-16-7.202-16-16v-96c0-8.797,7.203-16,16-16H480
        c0.008,0,0.008,0,0.008,0l0.008-32c0,0-0.008,0-0.016,0h-32.016C421.586,160,400,181.61,400,208v96c0,26.406,21.586,48,47.984,48
        H480c0.008,0,0.008,0,0.008,0L480.016,320z"/>
    <path fill="#FFFFFF" d="M31.984,192c8,0,7.234,0,16.032,0h16c8.797,0,16,7.203,16,16v96c0,8.798-7.203,16-16,16H32
        c0,0-0.008,0-0.016,0v32c0.008,0,0.008,0,0.008,0h32.024C90.414,352,112,330.406,112,304v-96c0-26.39-21.586-48-47.984-48H32
        c0,0-0.008,0-0.016,0V192z"/>
  </g>

  <!-- Ícono del reloj (centrado perfectamente) -->
  <g transform="translate(102.4, 102.4) scale(0.3)">
    <!-- Círculo -->
    <path d="M511.9 183c-181.8 0-329.1 147.4-329.1 329.1s147.4 329.1 329.1 329.1c181.8 0 329.1-147.4 329.1-329.1S693.6 183 511.9 183z m0 585.2c-141.2 0-256-114.8-256-256s114.8-256 256-256 256 114.8 256 256-114.9 256-256 256z"
          fill="#FFC107"/>
    <!-- Flecha -->
    <path d="M548.6 365.7h-73.2v161.4l120.5 120.5 51.7-51.7-99-99z"
          fill="#FFC107"/>
  </g>

</svg>
