<svg width="26" height="24" viewBox="0 0 26 24" fill="none" xmlns="http://www.w3.org/2000/svg">
<path d="M13 2.25C9.48438 2.25 6.29688 4.125 4.51562 7.125C2.78125 10.1719 2.78125 13.875 4.51562 16.875C6.29688 19.9219 9.48438 21.75 13 21.75C16.4688 21.75 19.6562 19.9219 21.4375 16.875C23.1719 13.875 23.1719 10.1719 21.4375 7.125C19.6562 4.125 16.4688 2.25 13 2.25ZM13 24C8.6875 24 4.75 21.75 2.59375 18C0.4375 14.2969 0.4375 9.75 2.59375 6C4.75 2.29688 8.6875 0 13 0C17.2656 0 21.2031 2.29688 23.3594 6C25.5156 9.75 25.5156 14.2969 23.3594 18C21.2031 21.75 17.2656 24 13 24ZM11.125 15.75H12.25V12.75H11.125C10.4688 12.75 10 12.2812 10 11.625C10 11.0156 10.4688 10.5 11.125 10.5H13.375C13.9844 10.5 14.5 11.0156 14.5 11.625V15.75H14.875C15.4844 15.75 16 16.2656 16 16.875C16 17.5312 15.4844 18 14.875 18H11.125C10.4688 18 10 17.5312 10 16.875C10 16.2656 10.4688 15.75 11.125 15.75ZM13 9C12.1562 9 11.5 8.34375 11.5 7.5C11.5 6.70312 12.1562 6 13 6C13.7969 6 14.5 6.70312 14.5 7.5C14.5 8.34375 13.7969 9 13 9Z" fill="white"/>
</svg>
