<svg width="18" height="17" viewBox="0 0 18 17" fill="none" xmlns="http://www.w3.org/2000/svg">
<path d="M6.75 12.1172L10.6172 8.25L6.75 4.41797V6.28125C6.75 6.77344 6.36328 7.125 5.90625 7.125H1.6875V9.375H5.90625C6.36328 9.375 6.75 9.76172 6.75 10.2188V12.1172ZM12.375 8.25C12.375 8.67188 12.1992 9.05859 11.918 9.33984L7.83984 13.418C7.52344 13.7344 7.10156 13.875 6.67969 13.875C5.76562 13.875 5.0625 13.1719 5.0625 12.2578V11.0625H1.6875C0.738281 11.0625 0 10.3242 0 9.375V7.125C0 6.21094 0.738281 5.4375 1.6875 5.4375H5.0625V4.27734C5.0625 3.36328 5.76562 2.625 6.67969 2.625C7.10156 2.625 7.52344 2.80078 7.83984 3.11719L11.918 7.19531C12.1992 7.47656 12.375 7.86328 12.375 8.25ZM12.0938 14.4375H14.9062C15.6797 14.4375 16.3125 13.8398 16.3125 13.0312V3.46875C16.3125 2.69531 15.6797 2.0625 14.9062 2.0625H12.0938C11.6016 2.0625 11.25 1.71094 11.25 1.21875C11.25 0.761719 11.6016 0.375 12.0938 0.375H14.9062C16.5938 0.375 18 1.78125 18 3.46875V13.0312C18 14.7539 16.5938 16.125 14.9062 16.125H12.0938C11.6016 16.125 11.25 15.7734 11.25 15.2812C11.25 14.8242 11.6016 14.4375 12.0938 14.4375Z" fill="#88B9A1"/>
</svg>
