<svg width="14" height="14" viewBox="0 0 14 14" fill="none" xmlns="http://www.w3.org/2000/svg">
<path d="M7 0C7.40625 0 7.75 0.34375 7.75 0.75V5.65625L11.8438 3.125C12.1875 2.90625 12.6562 3.03125 12.875 3.375C13.0938 3.71875 12.9688 4.1875 12.625 4.40625L8.40625 7L12.625 9.625C12.9688 9.84375 13.0938 10.3125 12.875 10.6562C12.6562 11 12.1875 11.125 11.8438 10.9062L7.75 8.375V13.25C7.75 13.6875 7.40625 14 7 14C6.5625 14 6.25 13.6875 6.25 13.25V8.375L2.125 10.9062C1.78125 11.125 1.3125 11 1.09375 10.6562C0.875 10.3125 1 9.84375 1.34375 9.625L5.5625 7L1.34375 4.40625C1 4.1875 0.875 3.71875 1.09375 3.375C1.3125 3.03125 1.78125 2.90625 2.125 3.125L6.25 5.65625V0.75C6.25 0.34375 6.5625 0 7 0Z" fill="#FFA9D3"/>
</svg>
