<svg width="25" height="23" viewBox="0 0 25 23" fill="none" xmlns="http://www.w3.org/2000/svg">
<path d="M12.9297 0.921875L24.6172 11.2344C24.918 11.4922 24.918 11.9219 24.7031 12.2227C24.4453 12.5234 24.0156 12.5234 23.7148 12.2656L22.125 10.8477V19.3125C22.125 21.2461 20.5781 22.75 18.6875 22.75H6.3125C4.37891 22.75 2.875 21.2461 2.875 19.3125V10.8477L1.24219 12.2656C0.984375 12.5234 0.511719 12.5234 0.296875 12.2227C0.0390625 11.9219 0.0390625 11.4922 0.339844 11.2344L12.0273 0.921875C12.2852 0.707031 12.6719 0.707031 12.9297 0.921875ZM4.25 19.3125C4.25 20.4727 5.15234 21.375 6.3125 21.375H9.0625V14.5C9.0625 13.7695 9.66406 13.125 10.4375 13.125H14.5625C15.293 13.125 15.9375 13.7695 15.9375 14.5V21.375H18.6875C19.8047 21.375 20.75 20.4727 20.75 19.3125V9.64453L12.5 2.38281L4.25 9.64453V19.3125ZM10.4375 21.375H14.5625V14.5H10.4375V21.375Z" fill="#7A7A7A"/>
</svg>
