<svg width="23" height="23" viewBox="0 0 23 23" fill="none" xmlns="http://www.w3.org/2000/svg">
<path d="M17.4 9.6875C17.4 7.02344 15.9391 4.53125 13.6187 3.15625C11.2555 1.82422 8.37656 1.82422 6.05624 3.15625C3.69296 4.53125 2.27499 7.02344 2.27499 9.6875C2.27499 12.3945 3.69296 14.8867 6.05624 16.2617C8.37656 17.5938 11.2555 17.5938 13.6187 16.2617C15.9391 14.8867 17.4 12.3945 17.4 9.6875ZM15.6383 16.4766C14.0914 17.8516 12.0289 18.625 9.83749 18.625C4.89609 18.625 0.899994 14.6289 0.899994 9.6875C0.899994 4.78906 4.89609 0.75 9.83749 0.75C14.7359 0.75 18.775 4.78906 18.775 9.6875C18.775 11.9219 17.9586 13.9414 16.6266 15.5312L22.6852 21.5898C22.943 21.8477 22.943 22.3203 22.6852 22.5781C22.4273 22.8359 21.9547 22.8359 21.6969 22.5781L15.6383 16.4766Z" fill="#7A7A7A"/>
</svg>
