<svg width="20" height="22" viewBox="0 0 20 22" fill="none" xmlns="http://www.w3.org/2000/svg">
<path d="M4.125 5.46777C4.125 3.53418 5.15625 1.72949 6.875 0.741213C8.55078 -0.247071 10.6562 -0.247071 12.375 0.741213C14.0508 1.72949 15.125 3.53418 15.125 5.46777C15.125 7.44433 14.0508 9.24897 12.375 10.2373C10.6562 11.2256 8.55078 11.2256 6.875 10.2373C5.15625 9.24897 4.125 7.44433 4.125 5.46777ZM0 20.7217C0 16.4678 3.39453 13.0303 7.64844 13.0303H11.5586C15.8125 13.0303 19.25 16.4678 19.25 20.7217C19.25 21.4092 18.6484 21.9678 17.9609 21.9678H1.24609C0.558594 21.9678 0 21.4092 0 20.7217Z" fill="#7A7A7A"/>
</svg>
