<svg width="20" height="23" viewBox="0 0 20 23" fill="none" xmlns="http://www.w3.org/2000/svg">
<path d="M14.125 6.25C14.125 4.78906 13.3086 3.45703 12.0625 2.68359C10.7734 1.95312 9.18359 1.95312 7.9375 2.68359C6.64844 3.45703 5.875 4.78906 5.875 6.25C5.875 7.75391 6.64844 9.08594 7.9375 9.85938C9.18359 10.5898 10.7734 10.5898 12.0625 9.85938C13.3086 9.08594 14.125 7.75391 14.125 6.25ZM4.5 6.25C4.5 4.31641 5.53125 2.51172 7.25 1.52344C8.92578 0.535156 11.0312 0.535156 12.75 1.52344C14.4258 2.51172 15.5 4.31641 15.5 6.25C15.5 8.22656 14.4258 10.0312 12.75 11.0195C11.0312 12.0078 8.92578 12.0078 7.25 11.0195C5.53125 10.0312 4.5 8.22656 4.5 6.25ZM1.75 21.375H18.25C18.1641 17.9805 15.3711 15.1875 11.9336 15.1875H8.02344C4.58594 15.1875 1.79297 17.9805 1.75 21.375ZM0.375 21.5039C0.375 17.25 3.76953 13.8125 8.02344 13.8125H11.9336C16.1875 13.8125 19.625 17.25 19.625 21.5039C19.625 22.1914 19.0234 22.75 18.3359 22.75H1.62109C0.933594 22.75 0.375 22.1914 0.375 21.5039Z" fill="#7A7A7A"/>
</svg>
