<svg width="26" height="23" viewBox="0 0 26 23" fill="none" xmlns="http://www.w3.org/2000/svg">
<path d="M25.632 11.75C25.632 12.5234 24.9875 13.125 24.257 13.125H22.882L22.925 20C22.925 20.1289 22.925 20.2578 22.925 20.3438V21.0312C22.925 22.0195 22.1516 22.75 21.2062 22.75H20.5187C20.4328 22.75 20.3898 22.75 20.3469 22.75C20.3039 22.75 20.218 22.75 20.175 22.75H18.8H17.7687C16.7805 22.75 16.05 22.0195 16.05 21.0312V20V17.25C16.05 16.5195 15.4055 15.875 14.675 15.875H11.925C11.1516 15.875 10.55 16.5195 10.55 17.25V20V21.0312C10.55 22.0195 9.77655 22.75 8.83124 22.75H7.79999H6.42499C6.33905 22.75 6.29608 22.75 6.21014 22.75C6.16718 22.75 6.12421 22.75 6.08124 22.75H5.39374C4.40546 22.75 3.67499 22.0195 3.67499 21.0312V16.2188C3.67499 16.2188 3.67499 16.1758 3.67499 16.1328V13.125H2.29999C1.52655 13.125 0.924988 12.5234 0.924988 11.75C0.924988 11.3633 1.05389 11.0195 1.35468 10.7188L12.3547 1.09375C12.6555 0.792969 12.9992 0.75 13.3 0.75C13.6008 0.75 13.9445 0.835938 14.2023 1.05078L25.1594 10.7188C25.5031 11.0195 25.675 11.3633 25.632 11.75Z" fill="url(#paint0_linear_2482_319)"/>
<defs>
<linearGradient id="paint0_linear_2482_319" x1="-14.2" y1="5" x2="38.8" y2="34.5" gradientUnits="userSpaceOnUse">
<stop offset="0.264334" stop-color="#FBDACA"/>
<stop offset="0.489583" stop-color="#FDC9CD"/>
<stop offset="0.689198" stop-color="#FEBCCF"/>
</linearGradient>
</defs>
</svg>
