<svg width="23" height="21" viewBox="0 0 23 21" fill="none" xmlns="http://www.w3.org/2000/svg">
<path d="M15.25 8H14H12.75H9.625C8.57031 8 7.75 7.17969 7.75 6.125V1.75H2.75C2.04688 1.75 1.5 2.33594 1.5 3V18C1.5 18.7031 2.04688 19.25 2.75 19.25H12.75C12.75 19.7188 12.8672 20.1484 13.0625 20.5C12.9453 20.5 12.8281 20.5 12.75 20.5H2.75C1.34375 20.5 0.25 19.4062 0.25 18V3C0.25 1.63281 1.34375 0.5 2.75 0.5H8.84375C9.3125 0.5 9.82031 0.734375 10.1719 1.08594L14.6641 5.57812C15.0156 5.92969 15.25 6.4375 15.25 6.90625V8ZM9.625 6.75H13.9609C13.9219 6.67188 13.8828 6.55469 13.8047 6.47656L9.27344 1.94531C9.19531 1.86719 9.07812 1.82812 9 1.78906V6.125C9 6.47656 9.27344 6.75 9.625 6.75ZM18.375 9.25C17.3203 9.25 16.5 10.1094 16.5 11.125V13H20.25V11.125C20.25 10.1094 19.3906 9.25 18.375 9.25ZM15.25 11.125C15.25 9.40625 16.6172 8 18.375 8C20.0938 8 21.5 9.40625 21.5 11.125V13C22.1641 13 22.75 13.5859 22.75 14.25V19.25C22.75 19.9531 22.1641 20.5 21.5 20.5H15.25C14.5469 20.5 14 19.9531 14 19.25V14.25C14 13.5859 14.5469 13 15.25 13V11.125ZM15.25 14.25V19.25H21.5V14.25H15.25Z" fill="#363636"/>
</svg>
