<svg width="18" height="21" viewBox="0 0 18 21" fill="none" xmlns="http://www.w3.org/2000/svg">
<path d="M12.75 5.5C12.75 4.17188 12.0078 2.96094 10.875 2.25781C9.70312 1.59375 8.25781 1.59375 7.125 2.25781C5.95312 2.96094 5.25 4.17188 5.25 5.5C5.25 6.86719 5.95312 8.07812 7.125 8.78125C8.25781 9.44531 9.70312 9.44531 10.875 8.78125C12.0078 8.07812 12.75 6.86719 12.75 5.5ZM4 5.5C4 3.74219 4.9375 2.10156 6.5 1.20312C8.02344 0.304688 9.9375 0.304688 11.5 1.20312C13.0234 2.10156 14 3.74219 14 5.5C14 7.29688 13.0234 8.9375 11.5 9.83594C9.9375 10.7344 8.02344 10.7344 6.5 9.83594C4.9375 8.9375 4 7.29688 4 5.5ZM1.5 19.25H16.5C16.4219 16.1641 13.8828 13.625 10.7578 13.625H7.20312C4.07812 13.625 1.53906 16.1641 1.5 19.25ZM0.25 19.3672C0.25 15.5 3.33594 12.375 7.20312 12.375H10.7578C14.625 12.375 17.75 15.5 17.75 19.3672C17.75 19.9922 17.2031 20.5 16.5781 20.5H1.38281C0.757812 20.5 0.25 19.9922 0.25 19.3672Z" fill="#363636"/>
</svg>
