<svg width="23" height="21" viewBox="0 0 23 21" fill="none" xmlns="http://www.w3.org/2000/svg">
<path d="M2.75 19.25H11.8125C12.2031 19.7188 12.6328 20.1484 13.1016 20.5C12.9844 20.5 12.8672 20.5 12.75 20.5H2.75C1.34375 20.5 0.25 19.4062 0.25 18V3C0.25 1.63281 1.34375 0.5 2.75 0.5H8.84375C9.3125 0.5 9.82031 0.734375 10.1719 1.08594L14.6641 5.57812C15.0156 5.92969 15.25 6.4375 15.25 6.90625V8.27344C14.7812 8.39062 14.3906 8.54688 14 8.78125V8H9.625C8.57031 8 7.75 7.17969 7.75 6.125V1.75H2.75C2.04688 1.75 1.5 2.33594 1.5 3V18C1.5 18.7031 2.04688 19.25 2.75 19.25ZM13.9609 6.75C13.9219 6.67188 13.8828 6.55469 13.8047 6.47656L9.27344 1.94531C9.19531 1.86719 9.07812 1.82812 9 1.78906V6.125C9 6.47656 9.27344 6.75 9.625 6.75H13.9609ZM17.125 19.25C18.6875 19.25 20.0938 18.4297 20.875 17.0625C21.6953 15.7344 21.6953 14.0547 20.875 12.6875C20.0938 11.3594 18.6875 10.5 17.125 10.5C15.5234 10.5 14.1172 11.3594 13.3359 12.6875C12.5156 14.0547 12.5156 15.7344 13.3359 17.0625C14.1172 18.4297 15.5234 19.25 17.125 19.25ZM17.125 9.25C19.1172 9.25 20.9531 10.3438 21.9688 12.0625C22.9844 13.8203 22.9844 15.9688 21.9688 17.6875C20.9531 19.4453 19.1172 20.5 17.125 20.5C15.0938 20.5 13.2578 19.4453 12.2422 17.6875C11.2266 15.9688 11.2266 13.8203 12.2422 12.0625C13.2578 10.3438 15.0938 9.25 17.125 9.25ZM19.7422 13.1953C19.9766 13.4297 19.9766 13.8594 19.7422 14.0938L16.9297 16.9062C16.6953 17.1406 16.2656 17.1406 16.0312 16.9062L14.4688 15.3438C14.2344 15.1094 14.2344 14.6797 14.4688 14.4453C14.7031 14.2109 15.1328 14.2109 15.3672 14.4453L16.5 15.5781L18.8438 13.1953C19.0781 12.9609 19.5078 12.9609 19.7422 13.1953Z" fill="#363636"/>
</svg>
